<svg xmlns="http://www.w3.org/2000/svg" xmlns:svg="http://www.w3.org/2000/svg" id="svg256" width="67mm" height="70mm" version="1.1" viewBox="0 0 67 70"><g id="layer1"><g id="XMLID_37_" transform="matrix(0.26458333,0,0,0.26458333,-107.76438,-82.80666)"><g id="XMLID_36_"><path id="XMLID_235_" d="m 446.2,565.3 c -8.7,8.7 -33.4,-15.9 -24.6,-24.6 l 150,-150 c 7.5,-7.5 32.1,17.1 24.6,24.6 z" class="st0" style="fill:#fff"/></g><g id="XMLID_14_" style="fill:#80e5ff"><path id="XMLID_234_" d="m 550.9,411.3 24.6,24.6 -124.53281,128.03169 c -6.70515,6.89354 -16.45404,4.60589 -23.56697,-1.86607 l -7.76562,-7.06584 C 413.25389,549.19404 417.6,538.2 423.9,532.2 Z" class="st3" style="fill:#80e5ff"/></g><g id="XMLID_13_"><g id="XMLID_15_" style="fill:#fd5"><path id="XMLID_233_" d="m 655.2364,378.4636 -7.6032,12.096 c -3.6288,5.8752 -3.6288,13.3056 0,19.1808 l 7.6032,12.096 -12.096,-7.6032 c -5.8752,-3.6288 -13.3056,-3.6288 -19.1808,0 l -12.096,7.6032 7.6032,-12.096 c 3.6288,-5.8752 3.6288,-13.3056 0,-19.1808 l -7.6032,-12.096 12.096,7.6032 c 5.8752,3.6288 13.3056,3.6288 19.1808,0 z" class="st2" style="fill:#fd5;stroke:#1c102c;stroke-width:3.456;stroke-linejoin:round;stroke-miterlimit:4;stroke-dasharray:none;stroke-opacity:1"/></g><g id="XMLID_16_" style="fill:#f95"><path id="XMLID_232_" d="m 642.2756,319.9244 -10.7136,16.9344 c -4.4928,7.0848 -4.4928,16.0704 0,22.9824 l 10.7136,16.9344 -16.9344,-10.7136 c -7.0848,-4.4928 -16.0704,-4.4928 -22.9824,0 l -16.9344,10.7136 10.7136,-16.9344 c 4.4928,-7.0848 4.4928,-16.0704 0,-22.9824 l -10.7136,-16.9344 16.9344,10.7136 c 7.0848,4.4928 16.0704,4.4928 22.9824,0 z" class="st3" style="fill:#f95;stroke:#1c102c;stroke-width:3.456;stroke-linejoin:round;stroke-miterlimit:4;stroke-dasharray:none;stroke-opacity:1"/></g></g></g><path style="color:#000;font-style:normal;font-variant:normal;font-weight:400;font-stretch:normal;font-size:medium;line-height:normal;font-family:sans-serif;font-variant-ligatures:normal;font-variant-position:normal;font-variant-caps:normal;font-variant-numeric:normal;font-variant-alternates:normal;font-variant-east-asian:normal;font-feature-settings:normal;font-variation-settings:normal;text-indent:0;text-align:start;text-decoration:none;text-decoration-line:none;text-decoration-style:solid;text-decoration-color:#000;letter-spacing:normal;word-spacing:normal;text-transform:none;writing-mode:lr-tb;direction:ltr;text-orientation:mixed;dominant-baseline:auto;baseline-shift:baseline;text-anchor:start;white-space:normal;shape-padding:0;shape-margin:0;inline-size:0;clip-rule:nonzero;display:inline;overflow:visible;visibility:visible;isolation:auto;mix-blend-mode:normal;color-interpolation:sRGB;color-interpolation-filters:linearRGB;solid-color:#000;solid-opacity:1;vector-effect:none;fill:#1c102c;fill-opacity:1;fill-rule:nonzero;stroke:none;stroke-width:.0264583;stroke-linecap:butt;stroke-linejoin:miter;stroke-miterlimit:4;stroke-dasharray:none;stroke-dashoffset:0;stroke-opacity:1;paint-order:stroke fill markers;color-rendering:auto;image-rendering:auto;shape-rendering:auto;text-rendering:auto;enable-background:accumulate;stop-color:#000" id="XMLID_116_" d="m 9.04916,69.11709 c -0.39687,0 -0.82021,-0.0529 -1.24354,-0.15875 C 5.18624,68.27042 2.30229,65.36 1.61437,62.76709 c -0.39688,-1.48167 -0.10583,-2.8575 0.87312,-3.81 l 39.6875,-39.6875 c 0.47625,-0.47625 1.85209,-1.48167 4.18042,-0.50271 1.05833,0.44979 2.19604,1.24354 3.20146,2.27542 1.00541,1.00541 1.82562,2.14312 2.27541,3.20146 0.97896,2.32833 -0.0265,3.70416 -0.5027,4.18041 l -39.6875,39.6875 c -0.71438,0.635 -1.61396,1.00542 -2.59292,1.00542 z M 3.40527,61.21497 c 0,0.34395 0.0118,2.42003 2.25752,4.38263 1.91438,1.67298 3.48364,1.47328 3.8276,1.47328 L 50.54397,26.12224 c -0.10583,-0.42333 -0.76011,-1.8204 -2.5485,-3.59792 -1.69262,-1.68233 -3.22222,-2.47262 -3.6191,-2.57845 z"/></g></svg>